# xmcd
#
# Track frame offsets: 
#        150
#        106826
#        127134
#        151806
#        176087
#
# Disc length: 3128 seconds
#
# Revision: 10
# Processed by: cddbd v1.5.2PL0 Copyright (c) Steve Scherf et al.
# Submitted via: ExactAudioCopyFreeDBPlugin 1.0
#
DISCID=3a0c3605
DTITLE=PINK FLOYD - ATOM HEART MOTHER
DYEAR=1970
DGENRE=Progressive Rock
TTITLE0=Atom Heart Mother - a) Father's Shout, b) Breast Milky, c) Mot
TTITLE0=her Fore, d) Funky Dung, e) Mind Your Throats Please, f) Remer
TTITLE0=gence
TTITLE1=If
TTITLE2=Summer '68
TTITLE3=Fat Old Sun
TTITLE4=Alan's Psychedelic Breakfast - a) Rise And Shine, b) Sunny Sid
TTITLE4=e Up, c) Morning Glory
EXTD=YEAR: 1970
EXTT0=\n
EXTT1=
EXTT2=
EXTT3=
EXTT4=
PLAYORDER=
